<svg id="visual" viewBox="0 0 960 300" width="960" height="300" xmlns="http://www.w3.org/2000/svg" xmlns:xlink="http://www.w3.org/1999/xlink" version="1.1"><rect x="0" y="0" width="960" height="300" fill="#293240"></rect><path d="M0 81L17.8 81.2C35.7 81.3 71.3 81.7 106.8 76.8C142.3 72 177.7 62 213.2 67C248.7 72 284.3 92 320 91.7C355.7 91.3 391.3 70.7 426.8 69.2C462.3 67.7 497.7 85.3 533.2 91.8C568.7 98.3 604.3 93.7 640 93C675.7 92.3 711.3 95.7 746.8 87.8C782.3 80 817.7 61 853.2 59.3C888.7 57.7 924.3 73.3 942.2 81.2L960 89L960 301L942.2 301C924.3 301 888.7 301 853.2 301C817.7 301 782.3 301 746.8 301C711.3 301 675.7 301 640 301C604.3 301 568.7 301 533.2 301C497.7 301 462.3 301 426.8 301C391.3 301 355.7 301 320 301C284.3 301 248.7 301 213.2 301C177.7 301 142.3 301 106.8 301C71.3 301 35.7 301 17.8 301L0 301Z" fill="#382a49"></path><path d="M0 94L17.8 101.3C35.7 108.7 71.3 123.3 106.8 124.2C142.3 125 177.7 112 213.2 109.2C248.7 106.3 284.3 113.7 320 122.5C355.7 131.3 391.3 141.7 426.8 145.8C462.3 150 497.7 148 533.2 147.8C568.7 147.7 604.3 149.3 640 147.8C675.7 146.3 711.3 141.7 746.8 137.2C782.3 132.7 817.7 128.3 853.2 133.5C888.7 138.7 924.3 153.3 942.2 160.7L960 168L960 301L942.2 301C924.3 301 888.7 301 853.2 301C817.7 301 782.3 301 746.8 301C711.3 301 675.7 301 640 301C604.3 301 568.7 301 533.2 301C497.7 301 462.3 301 426.8 301C391.3 301 355.7 301 320 301C284.3 301 248.7 301 213.2 301C177.7 301 142.3 301 106.8 301C71.3 301 35.7 301 17.8 301L0 301Z" fill="#422964"></path><path d="M0 217L17.8 203.5C35.7 190 71.3 163 106.8 149.8C142.3 136.7 177.7 137.3 213.2 150.8C248.7 164.3 284.3 190.7 320 193.3C355.7 196 391.3 175 426.8 162.8C462.3 150.7 497.7 147.3 533.2 148.2C568.7 149 604.3 154 640 161.2C675.7 168.3 711.3 177.7 746.8 178.5C782.3 179.3 817.7 171.7 853.2 166.2C888.7 160.7 924.3 157.3 942.2 155.7L960 154L960 301L942.2 301C924.3 301 888.7 301 853.2 301C817.7 301 782.3 301 746.8 301C711.3 301 675.7 301 640 301C604.3 301 568.7 301 533.2 301C497.7 301 462.3 301 426.8 301C391.3 301 355.7 301 320 301C284.3 301 248.7 301 213.2 301C177.7 301 142.3 301 106.8 301C71.3 301 35.7 301 17.8 301L0 301Z" fill="#4b2680"></path><path d="M0 198L17.8 203C35.7 208 71.3 218 106.8 215.7C142.3 213.3 177.7 198.7 213.2 192.5C248.7 186.3 284.3 188.7 320 190.3C355.7 192 391.3 193 426.8 193.3C462.3 193.7 497.7 193.3 533.2 199.3C568.7 205.3 604.3 217.7 640 215.5C675.7 213.3 711.3 196.7 746.8 197.2C782.3 197.7 817.7 215.3 853.2 219.7C888.7 224 924.3 215 942.2 210.5L960 206L960 301L942.2 301C924.3 301 888.7 301 853.2 301C817.7 301 782.3 301 746.8 301C711.3 301 675.7 301 640 301C604.3 301 568.7 301 533.2 301C497.7 301 462.3 301 426.8 301C391.3 301 355.7 301 320 301C284.3 301 248.7 301 213.2 301C177.7 301 142.3 301 106.8 301C71.3 301 35.7 301 17.8 301L0 301Z" fill="#54209d"></path><path d="M0 270L17.8 264C35.7 258 71.3 246 106.8 242C142.3 238 177.7 242 213.2 244.5C248.7 247 284.3 248 320 244.7C355.7 241.3 391.3 233.7 426.8 238.5C462.3 243.3 497.7 260.7 533.2 260.5C568.7 260.3 604.3 242.7 640 237C675.7 231.3 711.3 237.7 746.8 240.7C782.3 243.7 817.7 243.3 853.2 244.8C888.7 246.3 924.3 249.7 942.2 251.3L960 253L960 301L942.2 301C924.3 301 888.7 301 853.2 301C817.7 301 782.3 301 746.8 301C711.3 301 675.7 301 640 301C604.3 301 568.7 301 533.2 301C497.7 301 462.3 301 426.8 301C391.3 301 355.7 301 320 301C284.3 301 248.7 301 213.2 301C177.7 301 142.3 301 106.8 301C71.3 301 35.7 301 17.8 301L0 301Z" fill="#5c13bb"></path></svg>